# xmcd CD database file
#
# Track frame offsets:
#	150
#	5385
#	16880
#	33730
#	48005
#	58427
#	65237
#	84255
#	97607
#	113992
#	136327
#	166695
#	182967
#
# Disc length: 2719 seconds
#
# Revision: 0
# Processed by: cddbd v1.4PL0 Copyright (c) Steve Scherf et al.
# Submitted via: CDex 1.50
#
DISCID=a30a9d0d
DTITLE=SADAO WATANABE - BOSSA NOVA CONCERT
DYEAR=1967
DGENRE=Jazz
TTITLE0=OPENING:FELICIDADE
TTITLE1=O GRAND AMOR
TTITLE2=YOU AND I
TTITLE3=HERE'S THAT RAINY DAY
TTITLE4=THE GIRL FROM IPANEMA
TTITLE5=AGUA DE BEBER
TTITLE6=REZA
TTITLE7=ARRASTAO
TTITLE8=WHITE WAVE
TTITLE9=EMILY
TTITLE10=FROM RUSSIA WITH LOVE
TTITLE11=CORCOVADO - FELICIDADE
TTITLE12=SO DANCO SAMBA
EXTD=YEAR: 1967
EXTT0=
EXTT1=
EXTT2=
EXTT3=
EXTT4=
EXTT5=
EXTT6=
EXTT7=
EXTT8=
EXTT9=
EXTT10=
EXTT11=
EXTT12=
PLAYORDER=
